# xmcd CD database file
#
# Track frame offsets:
#	150
#	19465
#	43475
#	65370
#	89545
#	112485
#	132005
#
# Disc length: 2054 seconds
#
# Revision: 0
# Processed by: cddbd v1.5.1PL2 Copyright (c) Steve Scherf et al.
# Submitted via: CDex 1.51
#
DISCID=6a080407
DTITLE=佐藤美樹 - Birth〜金色の風〜
DYEAR=1994
DGENRE=J-Pop
TTITLE0=ずっとCrazy for you
TTITLE1=ふりむけばいつでもあなたが・・・
TTITLE2=あなたに似合う女性になるために
TTITLE3=I MISS YOU, Darling
TTITLE4=やさしい時間
TTITLE5=NOT ALONE
TTITLE6=希望のシャワー
EXTD=YEAR: 1994
EXTT0=
EXTT1=
EXTT2=
EXTT3=
EXTT4=
EXTT5=
EXTT6=
PLAYORDER=
